# xmcd CD database file
#
# Track frame offsets:
#	150
#	17438
#	41937
#	61934
#	84409
#	95820
#	113437
#	134261
#	149638
#	169507
#	189244
#	208429
#	229215
#	245721
#	260824
#	272955
#
# Disc length: 3836 seconds
#
# Revision: 1
# Processed by: cddbd v1.5.2PL0 Copyright (c) Steve Scherf et al.
# Submitted via: CDex 1.51
#
DISCID=f00efa10
DTITLE=Oscar Peterson - with Strings - CD 2
DYEAR=2016
DGENRE=Jazz
TTITLE0=I wants to stay here
TTITLE1=I was doing all right
TTITLE2='S Wonderful
TTITLE3=Bess, You is my woman now
TTITLE4=Strike up the band
TTITLE5=The can't take that away from me
TTITLE6=The man I love
TTITLE7=I got rhythm
TTITLE8=Someone to watch over me
TTITLE9=It ain't necessarily so
TTITLE10=I wants to stay here (alternate take)
TTITLE11=Someone to watch over me (alternate take)
TTITLE12=Everything happens to Me
TTITLE13=Wrap your troubles in dreams
TTITLE14=Sure thing
TTITLE15=Glad to be unhappy
EXTD=YEAR: 2016
EXTT0=
EXTT1=
EXTT2=
EXTT3=
EXTT4=
EXTT5=
EXTT6=
EXTT7=
EXTT8=
EXTT9=
EXTT10=
EXTT11=
EXTT12=
EXTT13=
EXTT14=
EXTT15=
PLAYORDER=
